<?xml version="1.0" encoding="UTF-8"?>
<svg xmlns="http://www.w3.org/2000/svg" width="1280" height="1524" viewBox="0 0 1280 1524">
  <defs>
    <style>
      .main-title { font: 700 22px system-ui, -apple-system, Segoe UI, sans-serif; fill: #09090b; }
      .subtitle { font: 400 13px system-ui, sans-serif; fill: #71717a; }
      .section-title { font: 700 15px system-ui, sans-serif; fill: #18181b; }
      .th { font: 600 11px system-ui, sans-serif; fill: #fafafa; }
      .td { font: 600 12px system-ui, sans-serif; }
      .td-left { font: 11px ui-monospace, SFMono-Regular, Menlo, monospace; fill: #3f3f46; }
      .legend { font: 400 11px system-ui, sans-serif; fill: #71717a; }
    </style>
  </defs>
  <rect width="100%" height="100%" fill="#f4f4f5"/>
  <text x="32" y="52" class="main-title">Glowish — Roles &amp; Permissions Matrix</text>
<text x="32" y="74" class="subtitle">Source: lib/permissions.ts · Sidebar · Purchase orders</text>
<text x="32" y="104" class="section-title">1. Role × permission (defaults)</text>
<rect x="32" y="132" width="724" height="436" rx="8" fill="#fff" stroke="#e4e4e7"/>
<rect x="32" y="132" width="220" height="36" fill="#18181b"/><text x="142" y="155" class="th" text-anchor="middle">Permission</text><rect x="252" y="132" width="72" height="36" fill="#18181b"/><text x="288" y="155" class="th" text-anchor="middle">ADMIN</text><rect x="324" y="132" width="72" height="36" fill="#18181b"/><text x="360" y="155" class="th" text-anchor="middle">ORG_ADMIN</text><rect x="396" y="132" width="72" height="36" fill="#18181b"/><text x="432" y="155" class="th" text-anchor="middle">BRANCH_MGR</text><rect x="468" y="132" width="72" height="36" fill="#18181b"/><text x="504" y="155" class="th" text-anchor="middle">INV_MGR</text><rect x="540" y="132" width="72" height="36" fill="#18181b"/><text x="576" y="155" class="th" text-anchor="middle">STAFF</text><rect x="612" y="132" width="72" height="36" fill="#18181b"/><text x="648" y="155" class="th" text-anchor="middle">MEMBER</text><rect x="684" y="132" width="72" height="36" fill="#18181b"/><text x="720" y="155" class="th" text-anchor="middle">CUSTOMER</text><rect x="32" y="168" width="220" height="28" fill="#fafafa"/><text x="42" y="187" class="td-left" text-anchor="start" fill="#18181b" font-weight="normal">manage:branches</text><rect x="252" y="168" width="72" height="28" fill="#dcfce7"/><text x="288" y="187" class="td" text-anchor="middle" fill="#166534" font-weight="bold">Y</text><rect x="324" y="168" width="72" height="28" fill="#f4f4f5"/><text x="360" y="187" class="td" text-anchor="middle" fill="#71717a" font-weight="bold">—</text><rect x="396" y="168" width="72" height="28" fill="#f4f4f5"/><text x="432" y="187" class="td" text-anchor="middle" fill="#71717a" font-weight="bold">—</text><rect x="468" y="168" width="72" height="28" fill="#f4f4f5"/><text x="504" y="187" class="td" text-anchor="middle" fill="#71717a" font-weight="bold">—</text><rect x="540" y="168" width="72" height="28" fill="#f4f4f5"/><text x="576" y="187" class="td" text-anchor="middle" fill="#71717a" font-weight="bold">—</text><rect x="612" y="168" width="72" height="28" fill="#f4f4f5"/><text x="648" y="187" class="td" text-anchor="middle" fill="#71717a" font-weight="bold">—</text><rect x="684" y="168" width="72" height="28" fill="#f4f4f5"/><text x="720" y="187" class="td" text-anchor="middle" fill="#71717a" font-weight="bold">—</text><rect x="32" y="196" width="220" height="28" fill="#ffffff"/><text x="42" y="215" class="td-left" text-anchor="start" fill="#18181b" font-weight="normal">manage:users</text><rect x="252" y="196" width="72" height="28" fill="#dcfce7"/><text x="288" y="215" class="td" text-anchor="middle" fill="#166534" font-weight="bold">Y</text><rect x="324" y="196" width="72" height="28" fill="#dcfce7"/><text x="360" y="215" class="td" text-anchor="middle" fill="#166534" font-weight="bold">Y</text><rect x="396" y="196" width="72" height="28" fill="#f4f4f5"/><text x="432" y="215" class="td" text-anchor="middle" fill="#71717a" font-weight="bold">—</text><rect x="468" y="196" width="72" height="28" fill="#f4f4f5"/><text x="504" y="215" class="td" text-anchor="middle" fill="#71717a" font-weight="bold">—</text><rect x="540" y="196" width="72" height="28" fill="#f4f4f5"/><text x="576" y="215" class="td" text-anchor="middle" fill="#71717a" font-weight="bold">—</text><rect x="612" y="196" width="72" height="28" fill="#f4f4f5"/><text x="648" y="215" class="td" text-anchor="middle" fill="#71717a" font-weight="bold">—</text><rect x="684" y="196" width="72" height="28" fill="#f4f4f5"/><text x="720" y="215" class="td" text-anchor="middle" fill="#71717a" font-weight="bold">—</text><rect x="32" y="224" width="220" height="28" fill="#fafafa"/><text x="42" y="243" class="td-left" text-anchor="start" fill="#18181b" font-weight="normal">manage:products</text><rect x="252" y="224" width="72" height="28" fill="#dcfce7"/><text x="288" y="243" class="td" text-anchor="middle" fill="#166534" font-weight="bold">Y</text><rect x="324" y="224" width="72" height="28" fill="#f4f4f5"/><text x="360" y="243" class="td" text-anchor="middle" fill="#71717a" font-weight="bold">—</text><rect x="396" y="224" width="72" height="28" fill="#dcfce7"/><text x="432" y="243" class="td" text-anchor="middle" fill="#166534" font-weight="bold">Y</text><rect x="468" y="224" width="72" height="28" fill="#dcfce7"/><text x="504" y="243" class="td" text-anchor="middle" fill="#166534" font-weight="bold">Y</text><rect x="540" y="224" width="72" height="28" fill="#f4f4f5"/><text x="576" y="243" class="td" text-anchor="middle" fill="#71717a" font-weight="bold">—</text><rect x="612" y="224" width="72" height="28" fill="#f4f4f5"/><text x="648" y="243" class="td" text-anchor="middle" fill="#71717a" font-weight="bold">—</text><rect x="684" y="224" width="72" height="28" fill="#f4f4f5"/><text x="720" y="243" class="td" text-anchor="middle" fill="#71717a" font-weight="bold">—</text><rect x="32" y="252" width="220" height="28" fill="#ffffff"/><text x="42" y="271" class="td-left" text-anchor="start" fill="#18181b" font-weight="normal">manage:inventory</text><rect x="252" y="252" width="72" height="28" fill="#dcfce7"/><text x="288" y="271" class="td" text-anchor="middle" fill="#166534" font-weight="bold">Y</text><rect x="324" y="252" width="72" height="28" fill="#dcfce7"/><text x="360" y="271" class="td" text-anchor="middle" fill="#166534" font-weight="bold">Y</text><rect x="396" y="252" width="72" height="28" fill="#dcfce7"/><text x="432" y="271" class="td" text-anchor="middle" fill="#166534" font-weight="bold">Y</text><rect x="468" y="252" width="72" height="28" fill="#dcfce7"/><text x="504" y="271" class="td" text-anchor="middle" fill="#166534" font-weight="bold">Y</text><rect x="540" y="252" width="72" height="28" fill="#f4f4f5"/><text x="576" y="271" class="td" text-anchor="middle" fill="#71717a" font-weight="bold">—</text><rect x="612" y="252" width="72" height="28" fill="#f4f4f5"/><text x="648" y="271" class="td" text-anchor="middle" fill="#71717a" font-weight="bold">—</text><rect x="684" y="252" width="72" height="28" fill="#f4f4f5"/><text x="720" y="271" class="td" text-anchor="middle" fill="#71717a" font-weight="bold">—</text><rect x="32" y="280" width="220" height="28" fill="#fafafa"/><text x="42" y="299" class="td-left" text-anchor="start" fill="#18181b" font-weight="normal">use:pos</text><rect x="252" y="280" width="72" height="28" fill="#dcfce7"/><text x="288" y="299" class="td" text-anchor="middle" fill="#166534" font-weight="bold">Y</text><rect x="324" y="280" width="72" height="28" fill="#dcfce7"/><text x="360" y="299" class="td" text-anchor="middle" fill="#166534" font-weight="bold">Y</text><rect x="396" y="280" width="72" height="28" fill="#dcfce7"/><text x="432" y="299" class="td" text-anchor="middle" fill="#166534" font-weight="bold">Y</text><rect x="468" y="280" width="72" height="28" fill="#f4f4f5"/><text x="504" y="299" class="td" text-anchor="middle" fill="#71717a" font-weight="bold">—</text><rect x="540" y="280" width="72" height="28" fill="#dcfce7"/><text x="576" y="299" class="td" text-anchor="middle" fill="#166534" font-weight="bold">Y</text><rect x="612" y="280" width="72" height="28" fill="#f4f4f5"/><text x="648" y="299" class="td" text-anchor="middle" fill="#71717a" font-weight="bold">—</text><rect x="684" y="280" width="72" height="28" fill="#f4f4f5"/><text x="720" y="299" class="td" text-anchor="middle" fill="#71717a" font-weight="bold">—</text><rect x="32" y="308" width="220" height="28" fill="#ffffff"/><text x="42" y="327" class="td-left" text-anchor="start" fill="#18181b" font-weight="normal">view:reports</text><rect x="252" y="308" width="72" height="28" fill="#dcfce7"/><text x="288" y="327" class="td" text-anchor="middle" fill="#166534" font-weight="bold">Y</text><rect x="324" y="308" width="72" height="28" fill="#dcfce7"/><text x="360" y="327" class="td" text-anchor="middle" fill="#166534" font-weight="bold">Y</text><rect x="396" y="308" width="72" height="28" fill="#dcfce7"/><text x="432" y="327" class="td" text-anchor="middle" fill="#166534" font-weight="bold">Y</text><rect x="468" y="308" width="72" height="28" fill="#dcfce7"/><text x="504" y="327" class="td" text-anchor="middle" fill="#166534" font-weight="bold">Y</text><rect x="540" y="308" width="72" height="28" fill="#f4f4f5"/><text x="576" y="327" class="td" text-anchor="middle" fill="#71717a" font-weight="bold">—</text><rect x="612" y="308" width="72" height="28" fill="#f4f4f5"/><text x="648" y="327" class="td" text-anchor="middle" fill="#71717a" font-weight="bold">—</text><rect x="684" y="308" width="72" height="28" fill="#f4f4f5"/><text x="720" y="327" class="td" text-anchor="middle" fill="#71717a" font-weight="bold">—</text><rect x="32" y="336" width="220" height="28" fill="#fafafa"/><text x="42" y="355" class="td-left" text-anchor="start" fill="#18181b" font-weight="normal">manage:members</text><rect x="252" y="336" width="72" height="28" fill="#dcfce7"/><text x="288" y="355" class="td" text-anchor="middle" fill="#166534" font-weight="bold">Y</text><rect x="324" y="336" width="72" height="28" fill="#f4f4f5"/><text x="360" y="355" class="td" text-anchor="middle" fill="#71717a" font-weight="bold">—</text><rect x="396" y="336" width="72" height="28" fill="#dcfce7"/><text x="432" y="355" class="td" text-anchor="middle" fill="#166534" font-weight="bold">Y</text><rect x="468" y="336" width="72" height="28" fill="#f4f4f5"/><text x="504" y="355" class="td" text-anchor="middle" fill="#71717a" font-weight="bold">—</text><rect x="540" y="336" width="72" height="28" fill="#dcfce7"/><text x="576" y="355" class="td" text-anchor="middle" fill="#166534" font-weight="bold">Y</text><rect x="612" y="336" width="72" height="28" fill="#f4f4f5"/><text x="648" y="355" class="td" text-anchor="middle" fill="#71717a" font-weight="bold">—</text><rect x="684" y="336" width="72" height="28" fill="#f4f4f5"/><text x="720" y="355" class="td" text-anchor="middle" fill="#71717a" font-weight="bold">—</text><rect x="32" y="364" width="220" height="28" fill="#ffffff"/><text x="42" y="383" class="td-left" text-anchor="start" fill="#18181b" font-weight="normal">manage:orders</text><rect x="252" y="364" width="72" height="28" fill="#dcfce7"/><text x="288" y="383" class="td" text-anchor="middle" fill="#166534" font-weight="bold">Y</text><rect x="324" y="364" width="72" height="28" fill="#dcfce7"/><text x="360" y="383" class="td" text-anchor="middle" fill="#166534" font-weight="bold">Y</text><rect x="396" y="364" width="72" height="28" fill="#dcfce7"/><text x="432" y="383" class="td" text-anchor="middle" fill="#166534" font-weight="bold">Y</text><rect x="468" y="364" width="72" height="28" fill="#f4f4f5"/><text x="504" y="383" class="td" text-anchor="middle" fill="#71717a" font-weight="bold">—</text><rect x="540" y="364" width="72" height="28" fill="#dcfce7"/><text x="576" y="383" class="td" text-anchor="middle" fill="#166534" font-weight="bold">Y</text><rect x="612" y="364" width="72" height="28" fill="#f4f4f5"/><text x="648" y="383" class="td" text-anchor="middle" fill="#71717a" font-weight="bold">—</text><rect x="684" y="364" width="72" height="28" fill="#f4f4f5"/><text x="720" y="383" class="td" text-anchor="middle" fill="#71717a" font-weight="bold">—</text><rect x="32" y="392" width="220" height="28" fill="#fafafa"/><text x="42" y="411" class="td-left" text-anchor="start" fill="#18181b" font-weight="normal">manage:organizations</text><rect x="252" y="392" width="72" height="28" fill="#dcfce7"/><text x="288" y="411" class="td" text-anchor="middle" fill="#166534" font-weight="bold">Y</text><rect x="324" y="392" width="72" height="28" fill="#dcfce7"/><text x="360" y="411" class="td" text-anchor="middle" fill="#166534" font-weight="bold">Y</text><rect x="396" y="392" width="72" height="28" fill="#f4f4f5"/><text x="432" y="411" class="td" text-anchor="middle" fill="#71717a" font-weight="bold">—</text><rect x="468" y="392" width="72" height="28" fill="#f4f4f5"/><text x="504" y="411" class="td" text-anchor="middle" fill="#71717a" font-weight="bold">—</text><rect x="540" y="392" width="72" height="28" fill="#f4f4f5"/><text x="576" y="411" class="td" text-anchor="middle" fill="#71717a" font-weight="bold">—</text><rect x="612" y="392" width="72" height="28" fill="#f4f4f5"/><text x="648" y="411" class="td" text-anchor="middle" fill="#71717a" font-weight="bold">—</text><rect x="684" y="392" width="72" height="28" fill="#f4f4f5"/><text x="720" y="411" class="td" text-anchor="middle" fill="#71717a" font-weight="bold">—</text><rect x="32" y="420" width="220" height="28" fill="#ffffff"/><text x="42" y="439" class="td-left" text-anchor="start" fill="#18181b" font-weight="normal">manage:roles</text><rect x="252" y="420" width="72" height="28" fill="#dcfce7"/><text x="288" y="439" class="td" text-anchor="middle" fill="#166534" font-weight="bold">Y</text><rect x="324" y="420" width="72" height="28" fill="#f4f4f5"/><text x="360" y="439" class="td" text-anchor="middle" fill="#71717a" font-weight="bold">—</text><rect x="396" y="420" width="72" height="28" fill="#f4f4f5"/><text x="432" y="439" class="td" text-anchor="middle" fill="#71717a" font-weight="bold">—</text><rect x="468" y="420" width="72" height="28" fill="#f4f4f5"/><text x="504" y="439" class="td" text-anchor="middle" fill="#71717a" font-weight="bold">—</text><rect x="540" y="420" width="72" height="28" fill="#f4f4f5"/><text x="576" y="439" class="td" text-anchor="middle" fill="#71717a" font-weight="bold">—</text><rect x="612" y="420" width="72" height="28" fill="#f4f4f5"/><text x="648" y="439" class="td" text-anchor="middle" fill="#71717a" font-weight="bold">—</text><rect x="684" y="420" width="72" height="28" fill="#f4f4f5"/><text x="720" y="439" class="td" text-anchor="middle" fill="#71717a" font-weight="bold">—</text><rect x="32" y="448" width="220" height="28" fill="#fafafa"/><text x="42" y="467" class="td-left" text-anchor="start" fill="#18181b" font-weight="normal">submit:org_orders</text><rect x="252" y="448" width="72" height="28" fill="#fef9c3"/><text x="288" y="467" class="td" text-anchor="middle" fill="#854d0e" font-weight="bold">Y*</text><rect x="324" y="448" width="72" height="28" fill="#dcfce7"/><text x="360" y="467" class="td" text-anchor="middle" fill="#166534" font-weight="bold">Y</text><rect x="396" y="448" width="72" height="28" fill="#f4f4f5"/><text x="432" y="467" class="td" text-anchor="middle" fill="#71717a" font-weight="bold">—</text><rect x="468" y="448" width="72" height="28" fill="#f4f4f5"/><text x="504" y="467" class="td" text-anchor="middle" fill="#71717a" font-weight="bold">—</text><rect x="540" y="448" width="72" height="28" fill="#f4f4f5"/><text x="576" y="467" class="td" text-anchor="middle" fill="#71717a" font-weight="bold">—</text><rect x="612" y="448" width="72" height="28" fill="#f4f4f5"/><text x="648" y="467" class="td" text-anchor="middle" fill="#71717a" font-weight="bold">—</text><rect x="684" y="448" width="72" height="28" fill="#f4f4f5"/><text x="720" y="467" class="td" text-anchor="middle" fill="#71717a" font-weight="bold">—</text><rect x="32" y="476" width="220" height="28" fill="#ffffff"/><text x="42" y="495" class="td-left" text-anchor="start" fill="#18181b" font-weight="normal">view:org_inventory</text><rect x="252" y="476" width="72" height="28" fill="#fef9c3"/><text x="288" y="495" class="td" text-anchor="middle" fill="#854d0e" font-weight="bold">Y*</text><rect x="324" y="476" width="72" height="28" fill="#dcfce7"/><text x="360" y="495" class="td" text-anchor="middle" fill="#166534" font-weight="bold">Y</text><rect x="396" y="476" width="72" height="28" fill="#f4f4f5"/><text x="432" y="495" class="td" text-anchor="middle" fill="#71717a" font-weight="bold">—</text><rect x="468" y="476" width="72" height="28" fill="#f4f4f5"/><text x="504" y="495" class="td" text-anchor="middle" fill="#71717a" font-weight="bold">—</text><rect x="540" y="476" width="72" height="28" fill="#f4f4f5"/><text x="576" y="495" class="td" text-anchor="middle" fill="#71717a" font-weight="bold">—</text><rect x="612" y="476" width="72" height="28" fill="#f4f4f5"/><text x="648" y="495" class="td" text-anchor="middle" fill="#71717a" font-weight="bold">—</text><rect x="684" y="476" width="72" height="28" fill="#f4f4f5"/><text x="720" y="495" class="td" text-anchor="middle" fill="#71717a" font-weight="bold">—</text><rect x="32" y="504" width="220" height="28" fill="#fafafa"/><text x="42" y="523" class="td-left" text-anchor="start" fill="#18181b" font-weight="normal">view:org_commissions</text><rect x="252" y="504" width="72" height="28" fill="#fef9c3"/><text x="288" y="523" class="td" text-anchor="middle" fill="#854d0e" font-weight="bold">Y*</text><rect x="324" y="504" width="72" height="28" fill="#dcfce7"/><text x="360" y="523" class="td" text-anchor="middle" fill="#166534" font-weight="bold">Y</text><rect x="396" y="504" width="72" height="28" fill="#f4f4f5"/><text x="432" y="523" class="td" text-anchor="middle" fill="#71717a" font-weight="bold">—</text><rect x="468" y="504" width="72" height="28" fill="#f4f4f5"/><text x="504" y="523" class="td" text-anchor="middle" fill="#71717a" font-weight="bold">—</text><rect x="540" y="504" width="72" height="28" fill="#f4f4f5"/><text x="576" y="523" class="td" text-anchor="middle" fill="#71717a" font-weight="bold">—</text><rect x="612" y="504" width="72" height="28" fill="#f4f4f5"/><text x="648" y="523" class="td" text-anchor="middle" fill="#71717a" font-weight="bold">—</text><rect x="684" y="504" width="72" height="28" fill="#f4f4f5"/><text x="720" y="523" class="td" text-anchor="middle" fill="#71717a" font-weight="bold">—</text><rect x="32" y="532" width="220" height="28" fill="#ffffff"/><text x="42" y="551" class="td-left" text-anchor="start" fill="#18181b" font-weight="normal">view:own_orders</text><rect x="252" y="532" width="72" height="28" fill="#fef9c3"/><text x="288" y="551" class="td" text-anchor="middle" fill="#854d0e" font-weight="bold">Y*</text><rect x="324" y="532" width="72" height="28" fill="#f4f4f5"/><text x="360" y="551" class="td" text-anchor="middle" fill="#71717a" font-weight="bold">—</text><rect x="396" y="532" width="72" height="28" fill="#f4f4f5"/><text x="432" y="551" class="td" text-anchor="middle" fill="#71717a" font-weight="bold">—</text><rect x="468" y="532" width="72" height="28" fill="#f4f4f5"/><text x="504" y="551" class="td" text-anchor="middle" fill="#71717a" font-weight="bold">—</text><rect x="540" y="532" width="72" height="28" fill="#f4f4f5"/><text x="576" y="551" class="td" text-anchor="middle" fill="#71717a" font-weight="bold">—</text><rect x="612" y="532" width="72" height="28" fill="#dcfce7"/><text x="648" y="551" class="td" text-anchor="middle" fill="#166534" font-weight="bold">Y</text><rect x="684" y="532" width="72" height="28" fill="#f4f4f5"/><text x="720" y="551" class="td" text-anchor="middle" fill="#71717a" font-weight="bold">—</text><text x="32" y="620" class="section-title">2. Sidebar navigation</text>
<rect x="32" y="648" width="1216" height="464" rx="8" fill="#fff" stroke="#e4e4e7"/>
<rect x="32" y="648" width="200" height="36" fill="#18181b"/><text x="132" y="671" class="th" text-anchor="middle">Nav item</text><rect x="232" y="648" width="1016" height="36" fill="#18181b"/><text x="740" y="671" class="th" text-anchor="middle">Visible when</text><rect x="32" y="684" width="200" height="28" fill="#fafafa"/><text x="42" y="703" class="td-left" text-anchor="start" fill="#18181b" font-weight="normal">Dashboard</text><rect x="232" y="684" width="1016" height="28" fill="#fafafa"/><text x="740" y="703" class="td" text-anchor="middle" fill="#18181b" font-weight="normal">ADMIN role</text><rect x="32" y="712" width="200" height="28" fill="#ffffff"/><text x="42" y="731" class="td-left" text-anchor="start" fill="#18181b" font-weight="normal">Org Dashboard / My Panel</text><rect x="232" y="712" width="1016" height="28" fill="#ffffff"/><text x="740" y="731" class="td" text-anchor="middle" fill="#18181b" font-weight="normal">ORG_ADMIN</text><rect x="32" y="740" width="200" height="28" fill="#fafafa"/><text x="42" y="759" class="td-left" text-anchor="start" fill="#18181b" font-weight="normal">POS</text><rect x="232" y="740" width="1016" height="28" fill="#fafafa"/><text x="740" y="759" class="td" text-anchor="middle" fill="#18181b" font-weight="normal">use:pos</text><rect x="32" y="768" width="200" height="28" fill="#ffffff"/><text x="42" y="787" class="td-left" text-anchor="start" fill="#18181b" font-weight="normal">Products / Media</text><rect x="232" y="768" width="1016" height="28" fill="#ffffff"/><text x="740" y="787" class="td" text-anchor="middle" fill="#18181b" font-weight="normal">manage:products</text><rect x="32" y="796" width="200" height="28" fill="#fafafa"/><text x="42" y="815" class="td-left" text-anchor="start" fill="#18181b" font-weight="normal">Inventory</text><rect x="232" y="796" width="1016" height="28" fill="#fafafa"/><text x="740" y="815" class="td" text-anchor="middle" fill="#18181b" font-weight="normal">manage:inventory</text><rect x="32" y="824" width="200" height="28" fill="#ffffff"/><text x="42" y="843" class="td-left" text-anchor="start" fill="#18181b" font-weight="normal">Orders</text><rect x="232" y="824" width="1016" height="28" fill="#ffffff"/><text x="740" y="843" class="td" text-anchor="middle" fill="#18181b" font-weight="normal">manage:orders</text><rect x="32" y="852" width="200" height="28" fill="#fafafa"/><text x="42" y="871" class="td-left" text-anchor="start" fill="#18181b" font-weight="normal">Purchase Orders</text><rect x="232" y="852" width="1016" height="28" fill="#fafafa"/><text x="740" y="871" class="td" text-anchor="middle" fill="#18181b" font-weight="normal">inventory OR submit:org_orders</text><rect x="32" y="880" width="200" height="28" fill="#ffffff"/><text x="42" y="899" class="td-left" text-anchor="start" fill="#18181b" font-weight="normal">Deliveries</text><rect x="232" y="880" width="1016" height="28" fill="#ffffff"/><text x="740" y="899" class="td" text-anchor="middle" fill="#18181b" font-weight="normal">ADMIN, no organizationId</text><rect x="32" y="908" width="200" height="28" fill="#fafafa"/><text x="42" y="927" class="td-left" text-anchor="start" fill="#18181b" font-weight="normal">Reseller / Commissions</text><rect x="232" y="908" width="1016" height="28" fill="#fafafa"/><text x="740" y="927" class="td" text-anchor="middle" fill="#18181b" font-weight="normal">ADMIN or ORG_ADMIN</text><rect x="32" y="936" width="200" height="28" fill="#ffffff"/><text x="42" y="955" class="td-left" text-anchor="start" fill="#18181b" font-weight="normal">Members</text><rect x="232" y="936" width="1016" height="28" fill="#ffffff"/><text x="740" y="955" class="td" text-anchor="middle" fill="#18181b" font-weight="normal">manage:members</text><rect x="32" y="964" width="200" height="28" fill="#fafafa"/><text x="42" y="983" class="td-left" text-anchor="start" fill="#18181b" font-weight="normal">Reports</text><rect x="232" y="964" width="1016" height="28" fill="#fafafa"/><text x="740" y="983" class="td" text-anchor="middle" fill="#18181b" font-weight="normal">view:reports</text><rect x="32" y="992" width="200" height="28" fill="#ffffff"/><text x="42" y="1011" class="td-left" text-anchor="start" fill="#18181b" font-weight="normal">Admin Branches</text><rect x="232" y="992" width="1016" height="28" fill="#ffffff"/><text x="740" y="1011" class="td" text-anchor="middle" fill="#18181b" font-weight="normal">manage:branches</text><rect x="32" y="1020" width="200" height="28" fill="#fafafa"/><text x="42" y="1039" class="td-left" text-anchor="start" fill="#18181b" font-weight="normal">Admin Users</text><rect x="232" y="1020" width="1016" height="28" fill="#fafafa"/><text x="740" y="1039" class="td" text-anchor="middle" fill="#18181b" font-weight="normal">ADMIN only</text><rect x="32" y="1048" width="200" height="28" fill="#ffffff"/><text x="42" y="1067" class="td-left" text-anchor="start" fill="#18181b" font-weight="normal">Admin Team</text><rect x="232" y="1048" width="1016" height="28" fill="#ffffff"/><text x="740" y="1067" class="td" text-anchor="middle" fill="#18181b" font-weight="normal">ORG_ADMIN + manage:users</text><rect x="32" y="1076" width="200" height="28" fill="#fafafa"/><text x="42" y="1095" class="td-left" text-anchor="start" fill="#18181b" font-weight="normal">Admin Organizations</text><rect x="232" y="1076" width="1016" height="28" fill="#fafafa"/><text x="740" y="1095" class="td" text-anchor="middle" fill="#18181b" font-weight="normal">ADMIN only</text><text x="32" y="1164" class="section-title">3. Purchase orders &amp; deliveries</text>
<rect x="32" y="1192" width="1216" height="240" rx="8" fill="#fff" stroke="#e4e4e7"/>
<rect x="32" y="1192" width="200" height="36" fill="#18181b"/><text x="132" y="1215" class="th" text-anchor="middle">Capability</text><rect x="232" y="1192" width="280" height="36" fill="#18181b"/><text x="372" y="1215" class="th" text-anchor="middle">ADMIN (HQ)</text><rect x="512" y="1192" width="280" height="36" fill="#18181b"/><text x="652" y="1215" class="th" text-anchor="middle">ORG_ADMIN</text><rect x="792" y="1192" width="456" height="36" fill="#18181b"/><text x="1020" y="1215" class="th" text-anchor="middle">Inventory staff</text><rect x="32" y="1228" width="200" height="28" fill="#fafafa"/><text x="42" y="1247" class="td-left" text-anchor="start" fill="#18181b" font-weight="normal">List / view POs</text><rect x="232" y="1228" width="280" height="28" fill="#fafafa"/><text x="372" y="1247" class="td" text-anchor="middle" fill="#18181b" font-weight="normal">All</text><rect x="512" y="1228" width="280" height="28" fill="#fafafa"/><text x="652" y="1247" class="td" text-anchor="middle" fill="#18181b" font-weight="normal">Own org</text><rect x="792" y="1228" width="456" height="28" fill="#fafafa"/><text x="1020" y="1247" class="td" text-anchor="middle" fill="#18181b" font-weight="normal">Branch scope</text><rect x="32" y="1256" width="200" height="28" fill="#ffffff"/><text x="42" y="1275" class="td-left" text-anchor="start" fill="#18181b" font-weight="normal">Create / edit draft</text><rect x="232" y="1256" width="280" height="28" fill="#ffffff"/><text x="372" y="1275" class="td" text-anchor="middle" fill="#18181b" font-weight="normal">Yes</text><rect x="512" y="1256" width="280" height="28" fill="#ffffff"/><text x="652" y="1275" class="td" text-anchor="middle" fill="#18181b" font-weight="normal">Own org (creator)</text><rect x="792" y="1256" width="456" height="28" fill="#ffffff"/><text x="1020" y="1275" class="td" text-anchor="middle" fill="#18181b" font-weight="normal">Yes</text><rect x="32" y="1284" width="200" height="28" fill="#fafafa"/><text x="42" y="1303" class="td-left" text-anchor="start" fill="#18181b" font-weight="normal">Sign &amp; submit</text><rect x="232" y="1284" width="280" height="28" fill="#fafafa"/><text x="372" y="1303" class="td" text-anchor="middle" fill="#18181b" font-weight="normal">Yes</text><rect x="512" y="1284" width="280" height="28" fill="#fafafa"/><text x="652" y="1303" class="td" text-anchor="middle" fill="#18181b" font-weight="normal">Yes</text><rect x="792" y="1284" width="456" height="28" fill="#fafafa"/><text x="1020" y="1303" class="td" text-anchor="middle" fill="#18181b" font-weight="normal">Yes</text><rect x="32" y="1312" width="200" height="28" fill="#ffffff"/><text x="42" y="1331" class="td-left" text-anchor="start" fill="#18181b" font-weight="normal">Approve</text><rect x="232" y="1312" width="280" height="28" fill="#ffffff"/><text x="372" y="1331" class="td" text-anchor="middle" fill="#18181b" font-weight="normal">Yes only</text><rect x="512" y="1312" width="280" height="28" fill="#ffffff"/><text x="652" y="1331" class="td" text-anchor="middle" fill="#18181b" font-weight="normal">No</text><rect x="792" y="1312" width="456" height="28" fill="#ffffff"/><text x="1020" y="1331" class="td" text-anchor="middle" fill="#18181b" font-weight="normal">No</text><rect x="32" y="1340" width="200" height="28" fill="#fafafa"/><text x="42" y="1359" class="td-left" text-anchor="start" fill="#18181b" font-weight="normal">Decline</text><rect x="232" y="1340" width="280" height="28" fill="#fafafa"/><text x="372" y="1359" class="td" text-anchor="middle" fill="#18181b" font-weight="normal">Yes only</text><rect x="512" y="1340" width="280" height="28" fill="#fafafa"/><text x="652" y="1359" class="td" text-anchor="middle" fill="#18181b" font-weight="normal">No</text><rect x="792" y="1340" width="456" height="28" fill="#fafafa"/><text x="1020" y="1359" class="td" text-anchor="middle" fill="#18181b" font-weight="normal">No</text><rect x="32" y="1368" width="200" height="28" fill="#ffffff"/><text x="42" y="1387" class="td-left" text-anchor="start" fill="#18181b" font-weight="normal">Receive / fulfill</text><rect x="232" y="1368" width="280" height="28" fill="#ffffff"/><text x="372" y="1387" class="td" text-anchor="middle" fill="#18181b" font-weight="normal">Yes</text><rect x="512" y="1368" width="280" height="28" fill="#ffffff"/><text x="652" y="1387" class="td" text-anchor="middle" fill="#18181b" font-weight="normal">Own org</text><rect x="792" y="1368" width="456" height="28" fill="#ffffff"/><text x="1020" y="1387" class="td" text-anchor="middle" fill="#18181b" font-weight="normal">Yes</text><rect x="32" y="1396" width="200" height="28" fill="#fafafa"/><text x="42" y="1415" class="td-left" text-anchor="start" fill="#18181b" font-weight="normal">Deliveries nav</text><rect x="232" y="1396" width="280" height="28" fill="#fafafa"/><text x="372" y="1415" class="td" text-anchor="middle" fill="#18181b" font-weight="normal">HQ ADMIN</text><rect x="512" y="1396" width="280" height="28" fill="#fafafa"/><text x="652" y="1415" class="td" text-anchor="middle" fill="#18181b" font-weight="normal">Hidden</text><rect x="792" y="1396" width="456" height="28" fill="#fafafa"/><text x="1020" y="1415" class="td" text-anchor="middle" fill="#18181b" font-weight="normal">Hidden</text><text x="32" y="1476" class="legend">Legend: Y = role default · Y* = ADMIN bypass (all checks) · — = not in defaults</text>
<text x="32" y="1494" class="legend">PO flow: draft → submitted → approved → received (or declined / cancelled)</text>

</svg>